# xmcd CD database file
#
# Track frame offsets:
#	150
#	47843
#	87218
#	102893
#	127193
#	151493
#	185993
#	229943
#	274965
#
# Disc length: 4093 seconds
#
# Revision: 0
# Processed by: cddbd v1.5.2PL0 Copyright (c) Steve Scherf et al.
# Submitted via: CDex 1.70beta2
#
DISCID=820ffb09
DTITLE=Alex Terrier Quintet - Stop Requested
DYEAR=2007
DGENRE=Jazz
TTITLE0=Silsila
TTITLE1=Stop Requested
TTITLE2=Praise (Part 1)
TTITLE3=Praise (Part 2)
TTITLE4=Mr. Joe
TTITLE5=La Lycastre
TTITLE6=Hope
TTITLE7=On Green Dolphin Street
TTITLE8=There's Snow Place Like Home
EXTD=YEAR: 2007
EXTT0=
EXTT1=
EXTT2=
EXTT3=
EXTT4=
EXTT5=
EXTT6=
EXTT7=
EXTT8=
PLAYORDER=
